<svg xmlns="http://www.w3.org/2000/svg" viewBox="0 0 720 420" role="img" aria-labelledby="heroTitle heroDesc">
  <title id="heroTitle">Interface AtlasCompta</title>
  <desc id="heroDesc">Illustration abstraite d'un tableau de bord comptable</desc>
  <defs>
    <linearGradient id="bg" x1="0" y1="1" x2="1" y2="0">
      <stop offset="0" stop-color="#f0f4ff" />
      <stop offset="1" stop-color="#d9edff" />
    </linearGradient>
    <linearGradient id="accent" x1="0" y1="0" x2="1" y2="1">
      <stop offset="0" stop-color="#0a3d62" />
      <stop offset="1" stop-color="#38bdf8" />
    </linearGradient>
  </defs>
  <rect width="720" height="420" rx="32" fill="url(#bg)" />
  <g transform="translate(60 60)">
    <rect width="600" height="320" rx="24" fill="#ffffff" stroke="#d0deff" stroke-width="3" />
    <rect x="24" y="32" width="552" height="40" rx="12" fill="#eef4ff" />
    <g fill="#0a3d62" opacity="0.45">
      <circle cx="60" cy="52" r="8" />
      <circle cx="96" cy="52" r="8" />
      <circle cx="132" cy="52" r="8" />
    </g>
    <g transform="translate(40 100)">
      <rect width="220" height="140" rx="16" fill="#f5fbff" stroke="#c4d9ff" />
      <path d="M40 104c32-64 64-64 96 0 32 64 64 64 96 0" fill="none" stroke="url(#accent)" stroke-width="8" stroke-linecap="round" />
      <circle cx="40" cy="104" r="6" fill="#0a3d62" />
      <circle cx="136" cy="104" r="6" fill="#38bdf8" />
      <circle cx="232" cy="104" r="6" fill="#0a3d62" />
    </g>
    <g transform="translate(320 100)">
      <rect width="240" height="180" rx="16" fill="#f5fbff" stroke="#c4d9ff" />
      <rect x="24" y="32" width="80" height="120" rx="12" fill="#38bdf8" opacity="0.8" />
      <rect x="124" y="72" width="80" height="80" rx="12" fill="#0a3d62" opacity="0.7" />
      <path d="M24 164h192" stroke="#b0c8ff" stroke-width="4" stroke-linecap="round" />
    </g>
    <g transform="translate(40 260)">
      <rect width="520" height="60" rx="14" fill="#eef4ff" />
      <rect x="16" y="18" width="160" height="24" rx="12" fill="#0a3d62" opacity="0.4" />
      <rect x="196" y="18" width="120" height="24" rx="12" fill="#38bdf8" opacity="0.4" />
      <rect x="336" y="18" width="140" height="24" rx="12" fill="#0a3d62" opacity="0.25" />
    </g>
  </g>
  <path d="M60 360c48-32 120-48 180-20s108 60 180 48 140-64 204-52 72 52 72 52" fill="none" stroke="rgba(56,189,248,0.35)" stroke-width="6" stroke-linecap="round" stroke-dasharray="14 18" />
</svg>
