<svg width="520" height="520" viewBox="0 0 520 520" fill="none" xmlns="http://www.w3.org/2000/svg">
  <defs>
    <linearGradient id="grad-bg" x1="60" y1="40" x2="480" y2="460" gradientUnits="userSpaceOnUse">
      <stop offset="0" stop-color="#0F766E" stop-opacity="0.8"/>
      <stop offset="1" stop-color="#1E293B" stop-opacity="0.9"/>
    </linearGradient>
    <linearGradient id="grad-accent" x1="120" y1="120" x2="400" y2="400" gradientUnits="userSpaceOnUse">
      <stop offset="0" stop-color="#38BDF8" stop-opacity="0.95"/>
      <stop offset="1" stop-color="#14B8A6" stop-opacity="0.9"/>
    </linearGradient>
    <clipPath id="clip-rounded">
      <rect x="60" y="60" width="400" height="400" rx="40"/>
    </clipPath>
  </defs>
  <rect x="30" y="30" width="460" height="460" rx="48" fill="#020617" stroke="#0F172A" stroke-width="2"/>
  <g clip-path="url(#clip-rounded)">
    <rect x="60" y="60" width="400" height="400" rx="40" fill="url(#grad-bg)"/>
    <g opacity="0.35">
      <circle cx="180" cy="160" r="110" fill="#38BDF8"/>
      <circle cx="360" cy="300" r="140" fill="#14B8A6"/>
    </g>
    <rect x="96" y="132" width="328" height="220" rx="28" fill="#0F172A" stroke="#1E3A8A" stroke-opacity="0.4" stroke-width="2"/>
    <rect x="128" y="168" width="112" height="24" rx="12" fill="#0EA5E9" fill-opacity="0.25"/>
    <rect x="128" y="208" width="264" height="20" rx="10" fill="#14B8A6" fill-opacity="0.25"/>
    <rect x="128" y="244" width="184" height="20" rx="10" fill="#38BDF8" fill-opacity="0.25"/>
    <rect x="128" y="280" width="224" height="20" rx="10" fill="#22D3EE" fill-opacity="0.25"/>
    <g transform="translate(128 324)">
      <rect width="264" height="120" rx="20" fill="#020617" stroke="#1E3A8A" stroke-opacity="0.5" stroke-width="1.5"/>
      <rect x="24" y="24" width="96" height="16" rx="8" fill="#16A34A" fill-opacity="0.6"/>
      <rect x="24" y="56" width="148" height="16" rx="8" fill="#EAB308" fill-opacity="0.55"/>
      <rect x="24" y="88" width="204" height="16" rx="8" fill="#38BDF8" fill-opacity="0.6"/>
      <circle cx="212" cy="40" r="18" fill="#32D6C6" fill-opacity="0.8"/>
      <path d="M204 40L210 46L224 32" stroke="#020617" stroke-width="3" stroke-linecap="round" stroke-linejoin="round"/>
    </g>
    <g transform="translate(336 340)">
      <rect width="100" height="100" rx="20" fill="#0EA5E9" fill-opacity="0.3"/>
      <path d="M32 52L46 64L68 36" stroke="#14B8A6" stroke-width="6" stroke-linecap="round" stroke-linejoin="round"/>
    </g>
  </g>
  <rect x="180" y="448" width="160" height="20" rx="10" fill="url(#grad-accent)" opacity="0.85"/>
  <circle cx="112" cy="440" r="18" fill="#38BDF8" opacity="0.35"/>
  <circle cx="408" cy="112" r="18" fill="#22D3EE" opacity="0.45"/>
</svg>
