<svg xmlns="http://www.w3.org/2000/svg" style="display:none">
  <symbol id="icon-ledger" viewBox="0 0 24 24" fill="none">
    <rect x="3" y="4" width="16" height="18" rx="2.5" stroke="#38BDF8" stroke-width="1.6"/>
    <path d="M7 4V20" stroke="#38BDF8" stroke-width="1.6"/>
    <rect x="9.5" y="8" width="7" height="1.6" rx="0.8" fill="#38BDF8"/>
    <rect x="9.5" y="12" width="7" height="1.6" rx="0.8" fill="#38BDF8"/>
    <rect x="9.5" y="16" width="5" height="1.6" rx="0.8" fill="#38BDF8"/>
  </symbol>
  <symbol id="icon-check" viewBox="0 0 24 24" fill="none">
    <path d="M5 12.5L10 17.5L19 6.5" stroke="#34D399" stroke-width="2" stroke-linecap="round" stroke-linejoin="round"/>
  </symbol>
  <symbol id="icon-rocket" viewBox="0 0 24 24" fill="none">
    <path d="M12 2C15.3137 2 18 4.68629 18 8C18 14 12 19 12 19C12 19 6 14 6 8C6 4.68629 8.68629 2 12 2Z" stroke="#FBBF24" stroke-width="1.6" stroke-linecap="round" stroke-linejoin="round"/>
    <path d="M12 10.5C13.3807 10.5 14.5 9.38071 14.5 8C14.5 6.61929 13.3807 5.5 12 5.5C10.6193 5.5 9.5 6.61929 9.5 8C9.5 9.38071 10.6193 10.5 12 10.5Z" stroke="#FBBF24" stroke-width="1.6"/>
    <path d="M9 15L7.5 18.5L11 17" stroke="#38BDF8" stroke-width="1.4" stroke-linecap="round" stroke-linejoin="round"/>
  </symbol>
  <symbol id="icon-chat" viewBox="0 0 24 24" fill="none">
    <path d="M5 6.5C5 5.11929 6.11929 4 7.5 4H16.5C17.8807 4 19 5.11929 19 6.5V13.5C19 14.8807 17.8807 16 16.5 16H10L6.5 19.5V16H7.5" stroke="#38BDF8" stroke-width="1.6" stroke-linecap="round" stroke-linejoin="round"/>
    <circle cx="10" cy="10" r="1" fill="#38BDF8"/>
    <circle cx="13" cy="10" r="1" fill="#38BDF8"/>
    <circle cx="16" cy="10" r="1" fill="#38BDF8"/>
  </symbol>
  <symbol id="icon-quote" viewBox="0 0 24 24" fill="none">
    <path d="M6.5 10C6.5 7.51472 8.51472 5.5 11 5.5V8.5C9.61929 8.5 8.5 9.61929 8.5 11V18.5H4.5V13C4.5 11.3431 5.84315 10 7.5 10H6.5Z" fill="#38BDF8"/>
    <path d="M17.5 10C17.5 7.51472 19.5147 5.5 22 5.5V8.5C20.6193 8.5 19.5 9.61929 19.5 11V18.5H15.5V13C15.5 11.3431 16.8431 10 18.5 10H17.5Z" fill="#38BDF8"/>
  </symbol>
  <symbol id="icon-caret" viewBox="0 0 24 24" fill="none">
    <path d="M9 6L17 12L9 18V6Z" fill="#38BDF8"/>
  </symbol>
  <symbol id="icon-send" viewBox="0 0 24 24" fill="none">
    <path d="M3.5 12L20.5 3.5L16.5 20.5L11 14L3.5 12Z" stroke="#38BDF8" stroke-width="1.6" stroke-linecap="round" stroke-linejoin="round"/>
  </symbol>
  <symbol id="icon-download" viewBox="0 0 24 24" fill="none">
    <path d="M12 4V16" stroke="#38BDF8" stroke-width="1.6" stroke-linecap="round"/>
    <path d="M7 11L12 16L17 11" stroke="#38BDF8" stroke-width="1.6" stroke-linecap="round" stroke-linejoin="round"/>
    <rect x="5" y="18" width="14" height="2" rx="1" fill="#38BDF8"/>
  </symbol>
  <symbol id="icon-success" viewBox="0 0 24 24" fill="none">
    <circle cx="12" cy="12" r="9" stroke="#34D399" stroke-width="1.6"/>
    <path d="M8.5 12.5L11 15L16 9" stroke="#34D399" stroke-width="1.8" stroke-linecap="round" stroke-linejoin="round"/>
  </symbol>
  <symbol id="icon-menu" viewBox="0 0 24 24" fill="none">
    <rect x="4" y="6" width="16" height="2" rx="1" fill="#38BDF8"/>
    <rect x="4" y="11" width="16" height="2" rx="1" fill="#38BDF8"/>
    <rect x="4" y="16" width="16" height="2" rx="1" fill="#38BDF8"/>
  </symbol>
  <symbol id="icon-close" viewBox="0 0 24 24" fill="none">
    <path d="M6 6L18 18" stroke="#38BDF8" stroke-width="1.6" stroke-linecap="round"/>
    <path d="M18 6L6 18" stroke="#38BDF8" stroke-width="1.6" stroke-linecap="round"/>
  </symbol>
  <symbol id="icon-double-entry" viewBox="0 0 24 24" fill="none">
    <rect x="4" y="5" width="16" height="14" rx="2" stroke="#38BDF8" stroke-width="1.6"/>
    <path d="M9 5V19" stroke="#38BDF8" stroke-width="1.6"/>
    <path d="M15 5V19" stroke="#38BDF8" stroke-width="1.6" opacity="0.6"/>
    <path d="M6 9H9" stroke="#34D399" stroke-width="1.6" stroke-linecap="round"/>
    <path d="M12 9H15" stroke="#FBBF24" stroke-width="1.6" stroke-linecap="round"/>
  </symbol>
  <symbol id="icon-invoice" viewBox="0 0 24 24" fill="none">
    <path d="M7 4H15L19 8V20C19 21.1046 18.1046 22 17 22H7C5.89543 22 5 21.1046 5 20V6C5 4.89543 5.89543 4 7 4Z" stroke="#38BDF8" stroke-width="1.6"/>
    <path d="M15 4V8H19" stroke="#38BDF8" stroke-width="1.6"/>
    <path d="M9 11H15" stroke="#34D399" stroke-width="1.6" stroke-linecap="round"/>
    <path d="M9 15H13" stroke="#FBBF24" stroke-width="1.6" stroke-linecap="round"/>
  </symbol>
  <symbol id="icon-bank" viewBox="0 0 24 24" fill="none">
    <path d="M4 9L12 3L20 9V11H4V9Z" stroke="#38BDF8" stroke-width="1.6" stroke-linejoin="round"/>
    <path d="M6 11V19" stroke="#38BDF8" stroke-width="1.6"/>
    <path d="M12 11V19" stroke="#38BDF8" stroke-width="1.6"/>
    <path d="M18 11V19" stroke="#38BDF8" stroke-width="1.6"/>
    <rect x="4" y="19" width="16" height="2" rx="1" fill="#38BDF8"/>
  </symbol>
  <symbol id="icon-vat" viewBox="0 0 24 24" fill="none">
    <path d="M7 7L17 17" stroke="#38BDF8" stroke-width="1.6" stroke-linecap="round"/>
    <circle cx="16" cy="8" r="3" stroke="#F97316" stroke-width="1.6"/>
    <path d="M8 16C8 13.7909 6.20914 12 4 12V20C6.20914 20 8 18.2091 8 16Z" stroke="#34D399" stroke-width="1.6" stroke-linejoin="round"/>
  </symbol>
  <symbol id="icon-users" viewBox="0 0 24 24" fill="none">
    <circle cx="9" cy="8" r="3" stroke="#38BDF8" stroke-width="1.6"/>
    <circle cx="17" cy="10" r="3" stroke="#34D399" stroke-width="1.6"/>
    <path d="M4 20C4 16.6863 6.68629 14 10 14C13.3137 14 16 16.6863 16 20" stroke="#38BDF8" stroke-width="1.6" stroke-linecap="round"/>
    <path d="M12 20C12 17.7909 13.7909 16 16 16C18.2091 16 20 17.7909 20 20" stroke="#34D399" stroke-width="1.6" stroke-linecap="round"/>
  </symbol>
  <symbol id="icon-report" viewBox="0 0 24 24" fill="none">
    <rect x="5" y="4" width="14" height="16" rx="2" stroke="#38BDF8" stroke-width="1.6"/>
    <path d="M9 11L11.5 13.5L15 9" stroke="#34D399" stroke-width="1.6" stroke-linecap="round" stroke-linejoin="round"/>
    <rect x="9" y="6" width="6" height="2" rx="1" fill="#38BDF8"/>
  </symbol>
  <symbol id="icon-analytics" viewBox="0 0 24 24" fill="none">
    <circle cx="12" cy="12" r="8" stroke="#38BDF8" stroke-width="1.6"/>
    <path d="M12 4V12L16.5 8.5" stroke="#FACC15" stroke-width="1.6" stroke-linecap="round" stroke-linejoin="round"/>
    <circle cx="12" cy="12" r="1.2" fill="#34D399"/>
  </symbol>
  <symbol id="icon-multi" viewBox="0 0 24 24" fill="none">
    <circle cx="6" cy="6" r="2.5" stroke="#38BDF8" stroke-width="1.6"/>
    <circle cx="18" cy="6" r="2.5" stroke="#34D399" stroke-width="1.6"/>
    <circle cx="12" cy="18" r="2.5" stroke="#FACC15" stroke-width="1.6"/>
    <path d="M7.5 7.5L10.5 15.5" stroke="#38BDF8" stroke-width="1.6" stroke-linecap="round"/>
    <path d="M16.5 7.5L13.5 15.5" stroke="#34D399" stroke-width="1.6" stroke-linecap="round"/>
  </symbol>
  <symbol id="icon-shield" viewBox="0 0 24 24" fill="none">
    <path d="M12 3L5 6V11C5 15.4183 8.27248 19.722 12 21C15.7275 19.722 19 15.4183 19 11V6L12 3Z" stroke="#38BDF8" stroke-width="1.6" stroke-linejoin="round"/>
    <path d="M9.5 12.5L11.5 14.5L15 11" stroke="#34D399" stroke-width="1.6" stroke-linecap="round" stroke-linejoin="round"/>
  </symbol>
  <symbol id="icon-api" viewBox="0 0 24 24" fill="none">
    <circle cx="6" cy="12" r="2.5" stroke="#38BDF8" stroke-width="1.6"/>
    <circle cx="18" cy="12" r="2.5" stroke="#34D399" stroke-width="1.6"/>
    <rect x="10" y="6" width="4" height="12" rx="2" stroke="#FACC15" stroke-width="1.6"/>
    <path d="M8 12H10" stroke="#38BDF8" stroke-width="1.6" stroke-linecap="round"/>
    <path d="M14 12H16" stroke="#34D399" stroke-width="1.6" stroke-linecap="round"/>
  </symbol>
</svg>
